<svg xmlns="http://www.w3.org/2000/svg" viewBox="0 0 820 560"><ellipse cx="389.3" cy="425.2" rx="189.2" ry="50" fill="#ff0"/><path d="M531.8 276.3c13.7 35 26.6 67.9 43.6 111.4 15.6-23.3 29.4-44 43.3-64.8 3.1 2.4 6.1 4.7 9.2 7.1 5.3 13.4 10.6 26.7 17.5 44.1 23.1-42.2 15.2-104.9 85.5-106.9-29.3 63.8-57.4 125.1-85.5 186.3-2.5.3-5 .7-7.4 1l-35.7-74.1c-28.2 15.7-25 56.6-54.9 72.9 1.4-50.9-23.1-90.7-45.2-131.4-8.9-16.2.7-31.5 29.6-45.6zM122 276.3c13.7 35 26.6 67.9 43.6 111.4 15.6-23.3 29.4-44 43.3-64.8 3.1 2.4 6.1 4.7 9.2 7.1 5.3 13.4 10.6 26.7 17.5 44.1 23.1-42.2 15.2-104.9 85.5-106.9-29.3 63.8-57.4 125.1-85.5 186.3-2.5.3-5 .7-7.4 1l-35.7-74.1c-28.2 15.7-25 56.6-54.9 72.9 1.4-50.9-23.1-90.7-45.2-131.4-9-16.2.7-31.5 29.6-45.6z"/><path d="M393.8 273c7.9-3 16.5-4 24.8-2.6 45.8 7.8 71.5 58.1 50.9 92.4-12.7 21.1-24.8 42.9-40.6 61.5-21.1 24.8-40.9 28-66.2 16.7-21.4-9.6-43.8-43.9-41.4-66.6 4.8-47.7 30.1-75.6 68.6-99.5 1-.6 2.4-1.3 3.9-1.9z" fill="#f7931e"/><path d="M361.8 263.9c1.3-7.4-1.1-14.9-6.4-20.2l-5.1-5.1c-5.3-5-11.3-9.3-16.7-14.3-5.9-5.5-11.2-11.5-17.1-17-4-3.8-8.4-7.2-12.9-10.4-8.9-6.3-16.2-15.3-27.2-18.4-2.6-.7-7.4-1.2-8-.1-2.2 4.2-3.2 9.1-4.5 13.7-.1.4.3 1.1.6 1.5 1.5 1.8 2.9 3.7 4.7 5.2 8.3 7.4 16.5 14.9 25.3 21.9 9.1 7.3 19 13.6 26.4 22.9 8.3 10.3 17.4 19.3 30.2 24.6 4.2 1.7 6.1.4 8.3-.8 1.3-.8 2.2-2.1 2.4-3.5zM581 153c-15.6 4.1-28.4 11.9-40.2 21.2-18.8 14.8-37.6 29.8-55.2 45.7-10.2 9.3-18.2 20.5-27.2 30.8-5 5.7-10.1 11.3-15 17-2.1 2.5-2.4 5.6 1 7.1 1.3.6 4.6-1.1 5.9-2.6 5.8-6 10.9-12.7 16.9-18.4 9.4-8.9 19.9-16.7 28.9-25.9 17.8-18.1 38.8-32.6 62.1-44.4 10.2-5.2 20.1-10.1 27.6-19.1.1-.1.2-.3.3-.4l4.7-9.8c.6-1.1-.3-2.4-1.7-2.6-2.4-.2-4.9.5-8.1 1.4zM431.4 87.6c-.8-3-4.7-3.8-6.6-1.3-.6.8-1.2 1.6-1.8 2.5-8.1 11.6-12.1 24.6-14.5 38.1-3.7 21.6-7.4 43.2-9.7 65-1.3 12.6.1 25.6.3 38.4.1 7.1 0 14.1.2 21.2.1 3.1 1.8 5.6 5.1 4.9 1.2-.3 3.8-2.2 3.9-4.1.3-7.3.3-16 0-23.3 0-.8 0-1.7.1-2.5 1-11.4 2.2-22.7 2.7-34.2 1.1-23.5 6.6-46 15.2-67.7 3.7-9.4 7.4-18.5 7.2-29.4 0-.3-.1-.6-.1-1l-2-6.6z"/></svg>